<svg width="42" height="43" viewBox="0 0 42 43" fill="none" xmlns="http://www.w3.org/2000/svg">
<rect x="0.5" y="1" width="41" height="41" rx="20.5" fill="#F9F9F9"/>
<rect x="0.5" y="1" width="41" height="41" rx="20.5" stroke="#EFEFF4"/>
<g clip-path="url(#clip0_197_59)">
<path d="M29.4443 24.65L27.4943 17.6218C27.0779 16.1183 26.1706 14.7974 24.9168 13.8691C23.663 12.9409 22.1347 12.4587 20.5752 12.4993C19.0157 12.5399 17.5145 13.101 16.3107 14.0933C15.1069 15.0855 14.2696 16.4519 13.9321 17.975L12.4238 24.7625C12.3508 25.0913 12.3526 25.4324 12.429 25.7604C12.5054 26.0885 12.6545 26.3952 12.8653 26.6579C13.0761 26.9207 13.3431 27.1327 13.6468 27.2785C13.9505 27.4242 14.283 27.4999 14.6198 27.5H17.3251C17.4972 28.3477 17.9571 29.1099 18.6269 29.6573C19.2966 30.2047 20.135 30.5038 21.0001 30.5038C21.8651 30.5038 22.7035 30.2047 23.3733 29.6573C24.043 29.1099 24.5029 28.3477 24.6751 27.5H27.2776C27.6241 27.4999 27.966 27.4196 28.2765 27.2656C28.5869 27.1116 28.8576 26.8879 29.0674 26.612C29.2773 26.3362 29.4205 26.0156 29.486 25.6752C29.5515 25.3349 29.5367 24.984 29.4443 24.65ZM21.0001 29C20.5364 28.9981 20.0846 28.8529 19.7065 28.5844C19.3285 28.3159 19.0426 27.9372 18.8881 27.5H23.1121C22.9575 27.9372 22.6716 28.3159 22.2936 28.5844C21.9155 28.8529 21.4638 28.9981 21.0001 29ZM27.8738 25.7038C27.8038 25.7965 27.7131 25.8716 27.609 25.9231C27.5048 25.9745 27.39 26.0009 27.2738 26H14.6198C14.5075 26 14.3966 25.9747 14.2954 25.9262C14.1941 25.8776 14.1051 25.8068 14.0348 25.7192C13.9646 25.6316 13.9149 25.5294 13.8894 25.42C13.864 25.3106 13.8634 25.1969 13.8878 25.0873L15.3961 18.2998C15.6618 17.1044 16.3195 16.0322 17.2647 15.2536C18.2098 14.475 19.388 14.0346 20.6121 14.0026C21.8363 13.9705 23.036 14.3485 24.0205 15.0766C25.0051 15.8047 25.7181 16.841 26.0461 18.0208L27.9961 25.049C28.0279 25.1601 28.0334 25.2772 28.0122 25.3908C27.991 25.5045 27.9436 25.6116 27.8738 25.7038Z" fill="#292D32"/>
</g>
<defs>
<clipPath id="clip0_197_59">
<rect width="18" height="18" fill="white" transform="translate(12 12.5)"/>
</clipPath>
</defs>
</svg>
