<svg width="42" height="43" viewBox="0 0 42 43" fill="none" xmlns="http://www.w3.org/2000/svg">
<rect x="0.5" y="1" width="41" height="41" rx="20.5" fill="#F9F9F9"/>
<rect x="0.5" y="1" width="41" height="41" rx="20.5" stroke="#EFEFF4"/>
<g clip-path="url(#clip0_181_184)">
<path d="M23.25 30.5H18.75V27.8652C17.9679 27.5885 17.2435 27.1701 16.6132 26.6307L14.3302 27.95L12.0802 24.05L14.3625 22.7338C14.2125 21.9181 14.2125 21.0819 14.3625 20.2662L12.0802 18.95L14.3302 15.05L16.6132 16.3692C17.2435 15.8299 17.9679 15.4115 18.75 15.1347V12.5H23.25V15.1347C24.032 15.4115 24.7564 15.8299 25.3867 16.3692L27.6697 15.05L29.9197 18.95L27.6375 20.2662C27.7874 21.0819 27.7874 21.9181 27.6375 22.7338L29.9197 24.05L27.6697 27.95L25.3867 26.6315C24.7563 27.1705 24.032 27.5888 23.25 27.8652V30.5ZM20.25 29H21.75V26.7297L22.3132 26.5842C23.2372 26.3449 24.0782 25.8576 24.7455 25.175L25.1527 24.7603L27.12 25.8965L27.87 24.5975L25.905 23.4627L26.0595 22.9032C26.3134 21.983 26.3134 21.011 26.0595 20.0908L25.905 19.5312L27.87 18.3965L27.12 17.0975L25.1527 18.2368L24.7455 17.825C24.0779 17.1435 23.2369 16.6573 22.3132 16.4187L21.75 16.2702V14H20.25V16.2702L19.6867 16.4158C18.7627 16.6551 17.9217 17.1424 17.2545 17.825L16.8472 18.2397L14.88 17.1005L14.13 18.3995L16.095 19.5342L15.9405 20.0938C15.6865 21.014 15.6865 21.986 15.9405 22.9062L16.095 23.4657L14.13 24.6005L14.88 25.8995L16.8472 24.7633L17.2545 25.178C17.922 25.8595 18.763 26.3457 19.6867 26.5842L20.25 26.7297V29ZM21 24.5C20.4066 24.5 19.8266 24.3241 19.3332 23.9944C18.8399 23.6648 18.4554 23.1962 18.2283 22.6481C18.0012 22.0999 17.9418 21.4967 18.0576 20.9147C18.1734 20.3328 18.4591 19.7982 18.8786 19.3787C19.2982 18.9591 19.8327 18.6734 20.4147 18.5576C20.9966 18.4419 21.5998 18.5013 22.148 18.7284C22.6962 18.9554 23.1647 19.3399 23.4944 19.8333C23.824 20.3266 24 20.9067 24 21.5C24 22.2956 23.6839 23.0587 23.1213 23.6213C22.5587 24.1839 21.7956 24.5 21 24.5ZM21 20C20.7033 20 20.4133 20.088 20.1666 20.2528C19.9199 20.4176 19.7277 20.6519 19.6141 20.926C19.5006 21.2001 19.4709 21.5017 19.5288 21.7926C19.5867 22.0836 19.7295 22.3509 19.9393 22.5607C20.1491 22.7704 20.4163 22.9133 20.7073 22.9712C20.9983 23.0291 21.2999 22.9994 21.574 22.8858C21.8481 22.7723 22.0823 22.58 22.2472 22.3334C22.412 22.0867 22.5 21.7967 22.5 21.5C22.5 21.1022 22.3419 20.7206 22.0606 20.4393C21.7793 20.158 21.3978 20 21 20Z" fill="#292D32"/>
</g>
<defs>
<clipPath id="clip0_181_184">
<rect width="18" height="18" fill="white" transform="translate(12 12.5)"/>
</clipPath>
</defs>
</svg>
